<?xml version="1.0" encoding="iso-8859-1"?>
<!-- Generator: Adobe Illustrator 19.0.0, SVG Export Plug-In . SVG Version: 6.00 Build 0)  -->
<svg version="1.1" id="Layer_1" xmlns="http://www.w3.org/2000/svg" xmlns:xlink="http://www.w3.org/1999/xlink" x="0px" y="0px"
	 viewBox="0 0 512 512" style="enable-background:new 0 0 512 512;" xml:space="preserve">
<circle style="fill:#EE539E;" cx="256" cy="256" r="256"/>
<path style="fill:#EA358B;" d="M256,0c-11.317,0-22.461,0.744-33.391,2.167C348.216,18.53,445.217,125.933,445.217,256
	s-97.002,237.47-222.609,253.833C233.539,511.256,244.683,512,256,512c141.385,0,256-114.616,256-256S397.385,0,256,0z"/>
<path style="fill:#FFFFFF;" d="M160.028,110.748h235.037c3.125,0,5.512,2.793,5.024,5.88l-31.96,202.417
	c-0.391,2.472-2.521,4.294-5.024,4.294h-82.836c-1.349,0-2.643,0.536-3.597,1.49L163.625,437.877
	c-3.204,3.204-8.684,0.935-8.684-3.597V115.834C154.941,113.025,157.219,110.748,160.028,110.748z"/>
<path style="fill:#EE539E;" d="M194.813,144.139H354.13c1.243,0,2.194,1.109,2.005,2.336l-8.11,52.708
	c-0.152,0.99-1.004,1.72-2.005,1.72H284.01c-8.705,0-16.227,6.674-16.633,15.369c-0.432,9.247,6.967,16.909,16.121,16.909h56.933
	c1.243,0,2.194,1.109,2.005,2.336l-8.11,52.708c-0.152,0.99-1.004,1.72-2.005,1.72h-76.388c-0.013,0-0.026,0.006-0.035,0.016
	l-59.603,63.861c-1.257,1.346-3.512,0.457-3.512-1.384V146.167C192.785,145.047,193.692,144.139,194.813,144.139z"/>
<g>
</g>
<g>
</g>
<g>
</g>
<g>
</g>
<g>
</g>
<g>
</g>
<g>
</g>
<g>
</g>
<g>
</g>
<g>
</g>
<g>
</g>
<g>
</g>
<g>
</g>
<g>
</g>
<g>
</g>
</svg>
