<?xml version="1.0" encoding="iso-8859-1"?>
<!-- Generator: Adobe Illustrator 19.0.0, SVG Export Plug-In . SVG Version: 6.00 Build 0)  -->
<svg version="1.1" id="Layer_1" xmlns="http://www.w3.org/2000/svg" xmlns:xlink="http://www.w3.org/1999/xlink" x="0px" y="0px"
	 viewBox="0 0 512 512" style="enable-background:new 0 0 512 512;" xml:space="preserve">
<circle style="fill:#FE5022;" cx="256" cy="256" r="256"/>
<path style="fill:#FF3501;" d="M256,0c-11.317,0-22.461,0.744-33.391,2.167C348.216,18.53,445.217,125.933,445.217,256
	s-97.002,237.47-222.609,253.833C233.539,511.256,244.683,512,256,512c141.385,0,256-114.616,256-256S397.385,0,256,0z"/>
<g>
	<path style="fill:#FFFFFF;" d="M243.175,214.509L208.526,77.523c-2.424-9.583-10.881-17.007-16.232-14.25l-56.81,29.279
		c-5.35,2.757-4.211,13.953,2.187,21.487l91.459,107.708C237.296,231.361,246.269,226.737,243.175,214.509L208.526,77.523
		c-2.424-9.583-10.881-17.007-16.232-14.25l-56.81,29.279c-5.35,2.757-4.211,13.953,2.187,21.487l91.459,107.708
		C237.296,231.361,246.269,226.737,243.175,214.509z"/>
	<path style="fill:#FFFFFF;" d="M216.165,254.442l-83.99-18.676c-5.876-1.307-11.213,3.734-10.243,9.675l10.29,63.076
		c0.969,5.94,7.632,9.023,12.788,5.918l73.7-44.4C225.288,266.071,223.663,256.108,216.165,254.442l-83.99-18.676
		c-5.876-1.307-11.213,3.734-10.243,9.675l10.29,63.076c0.969,5.94,7.632,9.023,12.788,5.918l73.7-44.4
		C225.288,266.071,223.663,256.108,216.165,254.442z"/>
	<path style="fill:#FFFFFF;" d="M241.981,293.091L198.265,367.2c-3.059,5.185,0.087,11.818,6.036,12.732l63.17,9.706
		c5.949,0.914,10.94-4.47,9.58-10.332l-19.453-83.814C255.86,288.009,245.882,286.475,241.981,293.091L198.265,367.2
		c-3.059,5.185,0.087,11.818,6.036,12.732l63.17,9.706c5.949,0.914,10.94-4.47,9.58-10.332l-19.453-83.814
		C255.86,288.009,245.882,286.475,241.981,293.091z"/>
	<path style="fill:#FFFFFF;" d="M286.716,280.482l56.972,64.477c3.986,4.51,11.266,3.57,13.974-1.806l28.751-57.078
		c2.708-5.376-0.87-11.786-6.866-12.304l-85.723-7.4C286.171,265.711,281.63,274.727,286.716,280.482l56.972,64.477
		c3.986,4.51,11.266,3.57,13.974-1.806l28.751-57.078c2.708-5.376-0.87-11.786-6.866-12.304l-85.723-7.4
		C286.171,265.711,281.63,274.727,286.716,280.482z"/>
	<path style="fill:#FFFFFF;" d="M288.549,234.04l78.927-34.259c5.522-2.396,6.876-9.612,2.6-13.848l-45.4-44.981
		c-4.276-4.236-11.479-2.815-13.824,2.729l-33.527,79.241C274.333,229.994,281.503,237.098,288.549,234.04l78.927-34.259
		c5.522-2.396,6.876-9.612,2.6-13.848l-45.4-44.981c-4.276-4.236-11.479-2.815-13.824,2.729l-33.527,79.241
		C274.333,229.994,281.503,237.098,288.549,234.04z"/>
</g>
<g>
</g>
<g>
</g>
<g>
</g>
<g>
</g>
<g>
</g>
<g>
</g>
<g>
</g>
<g>
</g>
<g>
</g>
<g>
</g>
<g>
</g>
<g>
</g>
<g>
</g>
<g>
</g>
<g>
</g>
</svg>
